# xmcd
#
# Track frame offsets:
# 150
# 14967
# 28247
# 42732
# 56270
# 69457
# 87545
# 101977
# 113467
# 130402
# 142402
# 154607
#
# Disc length: 2269 seconds
#
#
# Revision: 0
# Processed by: cddbd v1.5.2PL0 Copyright (c) Steve Scherf et al.
# Submitted via: FreeRIP 2.951 
#
DISCID=b608db0c
DTITLE=Various Artist - All time greatest hits of country Vol 1
DYEAR=1994
DGENRE=Country
TTITLE0=Bellamy Brothers - Let your love flow
TTITLE1=Mel Tillis - New Patches
TTITLE2=Moe Bandy - Too old to die young
TTITLE3=Dessert Rose Band - Love Reunited
TTITLE4=Sawyer Brown - The race is on
TTITLE5=Hank Williams jr. - Family tradition
TTITLE6=Merle Haggard - Lucky old Colorado
TTITLE7=Debbie Boone - Are you on the road to lovin' me again
TTITLE8=Johnnie Lee - Lookin' for love
TTITLE9=Marie Osmond - Paper roses
TTITLE10=Gene Watson - Got no reason for going home
TTITLE11=Ronnie McDowell - Unchained melodie
EXTD=
EXTT0=
EXTT1=
EXTT2=
EXTT3=
EXTT4=
EXTT5=
EXTT6=
EXTT7=
EXTT8=
EXTT9=
EXTT10=
EXTT11=
PLAYORDER=
